<?xml version="1.0" standalone="no"?>
<!DOCTYPE svg PUBLIC "-//W3C//DTD SVG 1.1//EN" "http://www.w3.org/Graphics/SVG/1.1/DTD/svg11.dtd" >
<svg xmlns="http://www.w3.org/2000/svg">
<metadata>
This is a custom SVG font generated by IcoMoon.
<iconset grid="40"></iconset>
</metadata>
<defs>
<font id="iconset1" horiz-adv-x="1280" >
<font-face units-per-em="1280" ascent="1216" descent="-64" />
<missing-glyph horiz-adv-x="1280" />
<glyph class="hidden" unicode="&#xf000;" d="M0,1216L 1280 -64L0 -64 z" horiz-adv-x="0" />
<glyph unicode="&#x53;" d="M 1280,719.687L 837.775,783.947L 640,1184.675l-197.77-400.727L0,719.687l 320-311.923L 244.46-32.675L 640,175.273l 395.54-207.947
	l-75.542,440.44L 1280,719.687z"  />
<glyph unicode="&#x5e;" d="M 640.064-12.8c 325.184,0, 588.736,263.616, 588.736,588.8s-263.552,588.8-588.736,588.8C 314.816,1164.8, 51.2,901.184, 51.2,576S 314.816-12.8, 640.064-12.8z
		 M 640.064,1036.8c 254.528,0, 460.736-206.336, 460.736-460.8s-206.272-460.8-460.736-460.8C 385.472,115.2, 179.2,321.472, 179.2,576S 385.472,1036.8, 640.064,1036.8z M 524.8,329.6
		l 230.464,0 L 755.264,591.36 l 144,0 l-259.2,243.84L 380.8,591.36L 524.8,591.36 L 524.8,329.6 z"  />
<glyph unicode="&#x75;" d="M 948.48,291.328c-157.76,57.472-208.192,105.984-208.192,209.856c0,62.336, 48.192,41.984, 69.312,156.16c 8.768,47.36, 51.328,0.768, 59.52,108.864
		c0,43.072-23.232,53.824-23.232,53.824s 11.84,63.808, 16.448,112.832C 867.968,994.048, 827.008,1152, 608,1152C 389.056,1152, 347.968,994.048, 353.728,932.864
		C 358.336,883.84, 370.176,820.032, 370.176,820.032S 346.88,809.344, 346.88,766.208c 8.128-108.096, 50.688-61.504, 59.456-108.864
		c 21.184-114.176, 69.376-93.824, 69.376-156.16c0-103.872-50.432-152.384-208.192-209.856c-158.336-57.6-261.12-116.416-261.12-156.544c0-40.064,0-134.72,0-134.72
		l 601.6,0 l 601.6,0 c0,0,0,94.656,0,134.72C 1209.6,174.848, 1106.752,233.664, 948.48,291.328z"  />
<glyph unicode="&#x22;" d="M 314.624,972.608c-103.040,0-186.624-85.952-186.624-192s 83.584-192, 186.624-192c 186.56,0, 62.208-371.2-186.624-371.2l0-89.536 
		C 572.032,127.872, 746.048,972.608, 314.624,972.608z M 852.16,972.608c-103.040,0-186.624-85.952-186.624-192s 83.584-192, 186.624-192c 186.56,0, 62.208-371.2-186.624-371.2
		l0-89.536 C 1109.632,127.872, 1283.648,972.608, 852.16,972.608z"  />
<glyph unicode="&#x6b;" d="M 1190.4,960L 89.6,960 C 40.32,960,0,919.68,0,870.4l0-588.864 C0,232.32, 40.32,192, 89.6,192l 1100.8,0 c 49.344,0, 89.6,40.32, 89.6,89.536L 1280,870.4 C 1280,919.68, 1239.68,960, 1190.4,960
	z M 704,832l 128,0 l0-128 l-128,0 L 704,832 z M 896,640l0-128 l-128,0 L 768,640 L 896,640 z M 512,832l 128,0 l0-128 L 512,704 L 512,832 z M 704,640l0-128 L 576,512 L 576,640 L 704,640 z M 320,832l 128,0 l0-128 L 320,704 L 320,832 z M 512,640l0-128 L 384,512 L 384,640 L 512,640 z M 128,832l 128,0 l0-128 L 128,704 L 128,832 z M 320,640l0-128 L 192,512 L 192,640 L 320,640 z M 256,320
	L 128,320 l0,128 l 128,0 L 256,320 z M 960,320L 320,320 l0,128 l 640,0 L 960,320 z M 1152,320l-128,0 l0,128 l 128,0 L 1152,320 z M 960,512L 960,640 l 128,0 l0-128 L 960,512 z M 1152,704l-256,0 L 896,832 l 256,0 L 1152,704 z"  />
<glyph unicode="&#x3f;" d="M 901.76,1073.024C 828.736,1125.696, 737.152,1152, 626.816,1152C 542.848,1152, 472.064,1133.44, 414.528,1096.448C 323.2,1038.464, 274.688,940.032, 268.8,801.152l 211.584,0 
		c0,40.448, 11.776,79.424, 35.392,116.928s 63.68,56.256, 120.192,56.256c 57.408,0, 97.024-15.232, 118.656-45.632c 21.696-30.528, 32.512-64.256, 32.512-101.248
		c0-32.192-16.128-61.632-35.584-88.448c-10.688-15.616-24.832-29.952-42.304-43.136c0,0-114.752-73.6-165.184-132.736
		c-29.248-34.304-31.872-85.632-34.432-159.296c-0.192-5.248, 1.792-16.064, 20.16-16.064s 148.288,0, 164.608,0s 19.712,12.096, 19.968,17.408
		c 1.152,26.816, 4.16,40.512, 9.088,56c 9.28,29.248, 34.368,54.784, 62.656,76.736l 58.24,40.192c 52.544,40.96, 94.528,74.56, 113.024,100.928
		C 988.992,722.432, 1011.2,775.808, 1011.2,839.104C 1011.2,942.464, 974.656,1020.416, 901.76,1073.024z M 623.424,260.864c-72.96,2.176-133.12-48.256-135.424-127.36
		c-2.304-79.040, 54.912-131.264, 127.872-133.44c 76.16-2.24, 134.72,46.592, 137.024,125.632C 755.136,204.8, 699.584,258.624, 623.424,260.864z"  />
<glyph unicode="&#xb0;" d="M 353.024,305.664c-144.768,155.712-142.208,399.68, 8.128,551.104c 61.568,61.952, 138.496,98.944, 218.496,111.104L 575.232,1100.8
	C 462.976,1087.168, 354.304,1037.056, 268.224,950.4C 66.688,747.392, 64.32,419.84, 260.352,212.352l-111.424-112.192l 352.64-19.264l-0.96,373.376L 353.024,305.664z
	 M 778.368,1071.040l 0.96-373.376l 147.648,148.672c 144.768-155.712, 142.272-399.68-8.128-551.104c-61.568-62.016-138.496-98.944-218.56-111.104l 4.416-132.864
	c 112.32,13.632, 220.992,63.744, 307.072,150.464c 201.472,202.944, 203.968,530.56, 7.808,737.984l 111.424,112.192L 778.368,1071.040z"  />
<glyph unicode="&#x21;" d="M 1248.768,65.152L 678.656,1065.536C 670.784,1079.36, 656,1087.872, 640,1087.872c-16,0-30.72-8.512-38.656-22.336L 31.296,65.152
		c-7.744-13.568-7.616-30.144, 0.32-43.584s 22.528-21.696, 38.272-21.696l 1140.16,0 c 15.616,0, 30.272,8.256, 38.272,21.696
		C 1256.256,35.008, 1256.384,51.584, 1248.768,65.152z M 710.4,127.872L 569.6,127.872 l0,128 l 140.8,0 L 710.4,127.872 z M 710.4,351.872L 569.6,351.872 l0,384 l 140.8,0 L 710.4,351.872 z"  />
<glyph unicode="&#x73;" d="M 1280,719.687l-442.225,64.26L 640,1184.675l-197.77-400.727L0,719.687l 320-311.923L 244.46-32.675L 640,175.273l 395.54-207.947
	l-75.542,440.44L 1280,719.687z M 640,274.127l-279.327-146.85l 53.345,311.038l-225.983,220.278l 312.3,45.38L 640,986.968l 139.67-282.995
	l 312.295-45.38l-225.985-220.278l 53.347-311.038L 640,274.127z"  />
<glyph unicode="&#x69;" d="M 632.128,1164.736c-325.12-4.352-585.216-271.488-580.864-596.672c 4.352-324.992, 271.488-585.152, 596.608-580.8
		c 325.12,4.352, 585.216,271.488, 580.864,596.672C 1224.448,908.992, 957.248,1169.088, 632.128,1164.736z M 697.408,968.512c 59.84,0, 77.504-34.688, 77.504-74.432
		c0-49.6-39.744-95.488-107.52-95.488c-56.704,0-83.648,28.544-82.048,75.648C 585.344,913.984, 618.624,968.512, 697.408,968.512z M 543.936,208
		c-40.896,0-70.848,24.832-42.24,134.016l 46.912,193.536c 8.128,31.040, 9.472,43.456,0,43.456c-12.224,0-65.344-21.44-96.768-42.56l-20.416,33.472
		c 99.52,83.072, 213.952,131.84, 262.976,131.84c 40.896,0, 47.68-48.384, 27.264-122.816l-53.76-203.52c-9.472-35.968-5.376-48.384, 4.096-48.384
		c 12.224,0, 52.48,14.848, 92.032,45.952l 23.104-31.040C 690.432,245.248, 584.896,208, 543.936,208z"  />
<glyph unicode="&#x7e;" d="M 80,976L 1200,976L 1200,736L 80,736zM 80,656L 1200,656L 1200,416L 80,416zM 80,336L 1200,336L 1200,96L 80,96z"  />
<glyph unicode="&#x45;" d="M 640,1216C 286.537,1216,0,929.463,0,576s 286.537-640, 640-640s 640,286.537, 640,640S 993.462,1216, 640,1216z M 960,782.863L 753.14,576
	L 960,369.14L 960,256 l-113.14,0 L 640,462.86L 433.137,256L 320,256 l0,113.14 L 526.862,576L 320,782.863L 320,896 l 113.138,0 L 640,689.138L 846.86,896L 960,896 
	L 960,782.863 z"  />
<glyph unicode="&#x71;" d="M 1200,576c0-309.28-250.72-560-560-560S 80,266.72, 80,576c0,136.32, 49.040,260.92, 130,358
	c 6.16,11.36, 14.72,21.24, 25.4,28.4c 1.8,1.88, 3.4,4, 5.24,5.84c 0.040-0.92, 0.44-1.8, 0.52-2.72C 252.72,972, 265.84,976, 280,976
	c 44.16,0, 80-35.84, 80-80c0-27.84-14.2-52.32-35.8-66.64C 325.6,828.32, 326.6,827.040, 328.040,826C 273.040,757.52, 240,670.68, 240,576
	c0-220.92, 179.080-400, 400-400s 400,179.080, 400,400c0,94.68-33.040,181.52-88.040,250c 1.44,1.040, 2.48,2.32, 3.84,3.36
	C 934.2,843.68, 920,868.16, 920,896c0,44.16, 35.84,80, 80,80c 14.16,0, 27.28-4, 38.84-10.48c 0.080,0.92, 0.48,1.8, 0.56,2.72
	c 1.8-1.84, 3.4-3.96, 5.24-5.84c 10.68-7.16, 19.2-17.040, 25.4-28.4C 1150.92,836.92, 1200,712.32, 1200,576z M 680,496l-80,0 
	c-22.12,0-40,17.88-40,40L 560,1096 c0,22.080, 17.88,40, 40,40l 80,0 c 22.12,0, 40-17.92, 40-40l0-560 C 720,513.88, 702.12,496, 680,496z"  />
<glyph unicode="&#x50;" d="M 1167.237,453.187c-67.157,116.317-26.77,265.38, 90.19,333.11l-125.782,217.865c-35.938-21.067-77.72-33.148-122.308-33.148
	c-134.42,0-243.385,109.682-243.385,244.988L 514.38,1216.003 c 0.333-41.762-10.092-84.102-32.447-122.815
	c-67.155-116.32-216.445-155.877-333.578-88.447L 22.575,786.875c 36.212-20.59, 67.563-50.735, 89.857-89.347
	c 67.047-116.135, 26.89-264.9-89.635-332.78l 125.782-217.865c 35.813,20.87, 77.395,32.818, 121.75,32.818
	c 133.995,0, 242.68-108.99, 243.375-243.697l 251.567,0 c-0.107,41.343, 10.34,83.212, 32.458,121.523
	c 67.045,116.133, 215.97,155.743, 333.017,88.765l 125.782,217.862C 1220.555,384.735, 1189.415,414.775, 1167.237,453.187z M 640,316.835
	c-143.135,0-259.17,116.030-259.17,259.168c0,143.135, 116.032,259.168, 259.17,259.168c 143.135,0, 259.165-116.032, 259.165-259.168
	C 899.163,432.865, 783.135,316.835, 640,316.835z"  />
<glyph unicode="&#x72;" d="M 128.128,1036.864l0-151.552 c 453.504,0, 821.12-367.68, 821.12-821.184l 151.616,0 C 1100.864,601.344, 665.344,1036.864, 128.128,1036.864z M 128.128,733.696l0-151.616 
		c 286.080,0, 518.016-231.872, 518.016-517.952l 151.488,0 C 797.632,433.856, 497.92,733.696, 128.128,733.696z M 273.408,354.688c-80.192,0-145.28-65.088-145.28-145.344
		s 65.088-145.28, 145.28-145.28c 80.256,0, 145.344,65.024, 145.344,145.28S 353.664,354.688, 273.408,354.688z"  />
<glyph unicode="&#x44;" d="M 1040,1136L 240,1136 L0,896l0-840 c0-22.093, 17.907-40, 40-40l 1200,0 c 22.090,0, 40,17.907, 40,40L 1280,896 L 1040,1136z M 640,176L 240,496l 240,0 l0,240 l 320,0 l0-240 l 240,0 
	L 640,176z M 193.137,976l 80,80l 733.722,0 l 80-80L 193.137,976 z"  />
<glyph unicode="&#x55;" d="M 1040,1136L 240,1136 L0,896l0-840 c0-22.093, 17.907-40, 40-40l 1200,0 c 22.090,0, 40,17.907, 40,40L 1280,896 L 1040,1136z M 800,416l0-240 L 480,176 l0,240 L 240,416 l 400,320
	l 400-320L 800,416 z M 193.137,976l 80,80l 733.72,0 l 80-80L 193.137,976 z"  />
<glyph unicode="&#x65;" d="M 640,1190.464c-338.816,0-614.4-275.712-614.4-614.464c0-338.816, 275.584-614.464, 614.4-614.464s 614.4,275.648, 614.4,614.464
	C 1254.4,914.752, 978.816,1190.464, 640,1190.464z M 1164.032,576c0-119.872-40.704-230.464-108.544-318.784c-19.2,15.040-39.552,55.552-20.352,97.536
	c 19.328,42.24, 24.384,140.032, 19.968,178.048c-4.224,38.016-24,129.664-77.76,130.56c-53.568,0.832-90.368,18.496-122.24,82.112
	c-66.112,132.288, 124.096,157.76, 57.984,231.040c-18.496,20.544-114.112-84.736-128.128,55.552C 784,1042.112, 793.6,1057.152, 806.4,1072.704
	C 1014.016,1002.944, 1164.032,806.72, 1164.032,576z M 568,1094.784C 555.52,1070.464, 522.432,1060.48, 502.272,1042.112C 458.56,1002.56, 439.744,1008, 416.128,969.984
	c-23.68-38.016-100.224-92.736-100.224-120.256c0-27.456, 38.656-59.968, 57.984-53.632c 19.328,6.4, 70.272,6.016, 100.224-4.48
	c 30.016-10.624, 250.56-21.184, 180.224-207.616c-22.272-59.264-119.808-49.28-145.792-147.456c-3.904-14.4-17.344-75.904-18.304-96
	c-1.536-31.104, 22.016-148.352-8-148.352c-30.144,0-111.168,104.896-111.168,123.904s-21.056,85.696-21.056,142.72s-97.088,56.128-97.088,131.968
	c0,68.48, 52.672,102.528, 40.832,135.232c-11.648,32.64-104.128,33.792-142.656,37.76C 218.432,938.624, 376.96,1068.416, 568,1094.784z M 475.2,78.72
	c 31.488,16.576, 34.688,38.080, 63.232,39.232c 32.64,1.408, 59.2,12.736, 95.936,20.8c 32.704,7.104, 91.072,40.256, 142.592,44.48
	c 43.328,3.584, 128.96-2.24, 152-44.096c-82.944-55.040-182.272-87.168-288.96-87.168C 582.4,51.968, 527.040,61.44, 475.2,78.72z"  />
<glyph unicode="&#x52;" d="M 720,1136 C 1029.28,1136 1280,885.28 1280,576 C 1280,266.72 1029.28,16 720,16 L 720,136 C 837.53,136 948.023,181.767 1031.128,264.872 C 1114.233,347.977 1160,458.47 1160,576 C 1160,693.528 1114.233,804.023 1031.128,887.127 C 948.023,970.232 837.53,1016 720,1016 C 602.472,1016 491.977,970.232 408.873,887.127 C 344.948,823.205 303.145,743.070 287.24,656 L 520,656 L 240,336 L -40,656 L 165.712,656 C 204.537,927.377 437.885,1136 720,1136 ZM 960,656 L 960,496 L 640,496 L 640,896 L 800,896 L 800,656 Z"  />
<glyph unicode="&#x66;" d="M 371.2,435.2L 371.2,832 L 128,832 C 57.6,832,0,774.4,0,704l0-384 c0-70.4, 57.6-128, 128-128l 64,0 l0-192 l 192,192l 320,0 c 70.4,0, 128,57.6, 128,128l0,116.48 c-4.096-0.896-8.448-1.344-12.8-1.344L 371.2,435.136 
		z M 1152,1152L 576,1152 C 505.6,1152, 448,1094.4, 448,1024l0-512 l 448,0 l 192-192l0,192 l 64,0 c 70.4,0, 128,57.6, 128,128L 1280,1024 C 1280,1094.4, 1222.4,1152, 1152,1152z"  />
<glyph unicode="&#x4e;" d="M 640,1216C 286.537,1216,0,929.463,0,576s 286.537-640, 640-640s 640,286.537, 640,640S 993.462,1216, 640,1216z M 640,56
	c-287.188,0-520,232.813-520,520S 352.813,1096, 640,1096s 520-232.813, 520-520S 927.188,56, 640,56zM 760,696l-360,200l-80,0 l0-80 l 200-360l 360-200l 80,0 l0,80 L 760,696z M 640,496c-44.182,0-80,35.818-80,80c0,44.182, 35.818,80, 80,80
	c 44.182,0, 80-35.818, 80-80C 720,531.817, 684.183,496, 640,496z"  />
<glyph unicode="&#x67;" d="M 960,384c-44.032,0-84.352-14.912-116.736-39.808l-334.016,200.384C 510.848,554.816, 512,565.312, 512,576c0,10.752-1.152,21.184-2.752,31.424
		l 334.016,200.384C 875.648,782.912, 915.968,768, 960,768c 105.984,0, 192,85.952, 192,192s-86.016,192-192,192s-192-85.952-192-192c0-10.688, 1.152-21.184, 2.816-31.424
		L 436.8,728.128C 404.416,753.088, 364.032,768, 320,768c-106.048,0-192-85.952-192-192c0-105.984, 85.952-192, 192-192c 44.032,0, 84.416,14.912, 116.8,39.808l 334.016-200.384
		C 769.152,213.184, 768,202.752, 768,192c0-105.984, 86.016-192, 192-192s 192,86.016, 192,192S 1065.984,384, 960,384z"  />
<glyph unicode="&#x62;" d="M 1120,1056l0-1040 L 280,16 c-66.278,0-120,53.725-120,120c0,66.273, 53.723,120, 120,120l 760,0 L 1040,1216 L 240,1216 C 152.002,1216, 80,1144, 80,1056l0-960 
		c0-88, 72.002-160, 160-160l 960,0 L 1200,1056 L 1120,1056 zM 320,176L 1040,176L 1040,96L 320,96z"  />
<glyph unicode="&#x70;" d="M 1216,140.8c0,0-128,622.912-689.6,622.912L 526.4,1011.2 L 64,598.080l 462.4-428.224l0,278.912 C 831.232,448.768, 1057.088,421.76, 1216,140.8z"  />
<glyph unicode="&#x68;" d="M 1280,477.945 L 640,974.727 L 0,477.942 L 0,680.49 L 640,1177.273 L 1280,680.487 ZM 1120,496 L 1120,16 L 800,16 L 800,336 L 480,336 L 480,16 L 160,16 L 160,496 L 640,856 Z"  />
<glyph unicode="&#x43;" d="M 1221.977,972.923c-42.48,12.135-86.762-12.463-98.9-54.945L 1116.8,896L 370.623,896 l-11.24,89.922
		C 354.377,1025.958, 320.345,1056, 280,1056L 80,1056 C 35.818,1056,0,1020.183,0,976s 35.818-80, 80-80l 129.377,0 l 71.24-569.923
		C 285.623,286.045, 319.655,256, 360,256l 680,0 c 35.718,0, 67.11,23.68, 76.922,58.023l 160,560
		C 1289.060,916.505, 1264.46,960.785, 1221.977,972.923z M 640,576l0,80 l 159.995,0 l0-80 L 640,576 z M 799.995,496l0-80 L 640,416 l0,80 L 799.995,496 z M 640,736l0,80 
		l 159.995,0 l0-80 L 640,736 z M 380.623,816L 560,816 l0-80 l-169.377,0 L 380.623,816z M 400.623,656L 560,656 l0-80 l-149.377,0 L 400.623,656z M 420.623,496L 560,496 l0-80 l-129.377,0 
		L 420.623,496z M 979.655,416l-99.66,0 l0,80 l 122.517,0 L 979.655,416z M 1025.37,576l-145.375,0 l0,80 l 168.233,0 L 1025.37,576z M 1071.085,736l-191.090,0 
		l0,80 l 213.947,0 L 1071.085,736zM 320,56A120,120 3060 1 1 560,56A120,120 3060 1 1 320,56zM 800,56A120,120 3060 1 1 1040,56A120,120 3060 1 1 800,56z"  />
<glyph unicode="&#x63;" d="M 256,128c0-70.656, 57.344-128, 128-128c 70.72,0, 128,57.344, 128,128s-57.28,128-128,128C 313.344,256, 256,198.656, 256,128z M 896,128c0-70.656, 57.344-128, 128-128
	c 70.72,0, 128,57.344, 128,128s-57.28,128-128,128C 953.344,256, 896,198.656, 896,128z M 483.008,430.592L 1191.424,632.96C 1204.928,636.864, 1216,651.52, 1216,665.6L 1216,1017.6 L 313.6,1017.6 L 313.6,1126.4 
	C 313.6,1140.48, 302.144,1152, 288,1152L 89.6,1152 C 75.52,1152, 64,1140.48, 64,1126.4L 64,1024 l 124.352,0 l 125.952-579.648L 326.464,384l0-96 c0-14.080, 11.52-25.6, 25.536-25.6L 384,262.4 l 640,0 l 166.464,0 
	C 1204.48,262.4, 1216,273.92, 1216,288L 1216,384 L 496.128,384 C 422.592,384, 421.056,412.8, 483.008,430.592z"  />
<glyph unicode="&#x2e;" d="M 320,384L 256,384 c-35.328,0-64-28.608-64-64s 28.672-64, 64-64l 64,0 c 35.328,0, 64,28.608, 64,64S 355.328,384, 320,384z M 320,640L 256,640 c-35.328,0-64-28.672-64-64s 28.672-64, 64-64l 64,0 
	c 35.328,0, 64,28.672, 64,64S 355.328,640, 320,640z M 320,896L 256,896 C 220.672,896, 192,867.328, 192,832s 28.672-64, 64-64l 64,0 c 35.328,0, 64,28.672, 64,64S 355.328,896, 320,896z M 576,768l 448,0 
	c 35.392,0, 64,28.672, 64,64s-28.608,64-64,64L 576,896 C 540.672,896, 512,867.328, 512,832S 540.672,768, 576,768z M 1024,640L 576,640 c-35.328,0-64-28.672-64-64s 28.672-64, 64-64l 448,0 
	c 35.392,0, 64,28.672, 64,64S 1059.392,640, 1024,640z M 1024,384L 576,384 c-35.328,0-64-28.608-64-64s 28.672-64, 64-64l 448,0 c 35.392,0, 64,28.608, 64,64S 1059.392,384, 1024,384z"  />
<glyph unicode="&#x2d;" d="M 1024,640L 256,640 c-35.328,0-64-28.672-64-64s 28.672-64, 64-64l 768,0 c 35.392,0, 64,28.672, 64,64S 1059.392,640, 1024,640z M 256,768l 768,0 c 35.392,0, 64,28.672, 64,64
		s-28.608,64-64,64L 256,896 C 220.672,896, 192,867.328, 192,832S 220.672,768, 256,768z M 1024,384L 256,384 c-35.328,0-64-28.608-64-64s 28.672-64, 64-64l 768,0 c 35.392,0, 64,28.608, 64,64
		S 1059.392,384, 1024,384z"  />
<glyph unicode="&#x5f;" d="M 320,0L 960,0 C 1030.4,0, 1088,57.6, 1088,128l0,896 c0,70.4, -57.6,128, -128,128l -640,0 c -70.4,0, -128-57.6, -128-128L 192,128 C 192,57.6, 249.6,0, 320,0z M 908.032,266.816l -536,0 l0,112 L 908.032,378.816 L 908.032,266.816 
	z M 372.032,881.28L 908.032,881.28 l 0-112 l -536,0 L 372.032,881.28 z M 370.496,631.68L 906.496,631.68 l 0-115.2 l -536,0 L 370.496,631.68 z"  />
<glyph unicode="&#x3a;" d="M 473.6,960L 358.4,960 C 288,960, 256,928, 256,857.6l0-115.2 C 256,672, 288,640, 358.4,640l 115.2,0 C 544,640, 576,672, 576,742.4L 576,857.6 C 576,928, 544,960, 473.6,960z M 921.6,960L 806.4,960 
		C 736,960, 704,928, 704,857.6l0-115.2 C 704,672, 736,640, 806.4,640L 921.6,640 C 992,640, 1024,672, 1024,742.4L 1024,857.6 C 1024,928, 992,960, 921.6,960z M 473.6,512L 358.4,512 
		C 288,512, 256,480, 256,409.6L 256,294.4 C 256,224, 288,192, 358.4,192l 115.2,0 C 544,192, 576,224, 576,294.4L 576,409.6 C 576,480, 544,512, 473.6,512z M 921.6,512L 806.4,512 
		c-70.4,0-102.4-32-102.4-102.4L 704,294.4 c0-70.4, 32-102.4, 102.4-102.4L 921.6,192 c 70.4,0, 102.4,32, 102.4,102.4L 1024,409.6 C 1024,480, 992,512, 921.6,512z"  />
<glyph unicode="&#x3e;" d="M 1280,1216 L 1280,696 L 1080,896 L 840,656 L 720,776 L 960,1016 L 760,1216 ZM 560,376 L 320,136 L 520-64 L 0-64 L 0,456 L 200,256 L 440,496 Z"  />
<glyph unicode="&#x3c;" d="M 560,496 L 560-24 L 360,176 L 120-64 L 0,56 L 240,296 L 40,496 ZM 1280,1096 L 1040,856 L 1240,656 L 720,656 L 720,1176 L 920,976 L 1160,1216 Z"  />
<glyph unicode="&#x2a;" d="M 1280,576c-1.598,83.577-19.73,166.895-53.22,243.077c-33.38,76.25-81.828,145.322-141.303,202.4
	c-59.44,57.12-129.93,102.275-206.23,132.065C 802.993,1183.447, 721.003,1197.732, 640,1196c-81.013-1.603-161.665-19.218-235.418-51.695
	c-73.81-32.37-140.678-79.338-195.918-136.97c-55.28-57.602-98.95-125.885-127.733-199.748C 52.040,733.76, 38.273,654.437, 40,576
	c 1.607-78.45, 18.705-156.435, 50.168-227.757c 31.36-71.375, 76.845-136.035, 132.637-189.435c 55.763-53.442, 121.84-95.63, 193.268-123.4
	C 487.47,7.527, 564.13-5.72, 640-4c 75.885,1.613, 151.203,18.192, 220.095,48.642c 68.938,30.352, 131.395,74.35, 182.958,128.305
	c 51.602,53.925, 92.305,117.795, 119.068,186.788c 16.293,41.822, 27.35,85.5, 33.178,129.748c 1.558-0.090, 3.123-0.15, 4.702-0.15
	c 44.182,0, 80,35.815, 80,80c0,2.245-0.117,4.465-0.297,6.665L 1280,575.998 z M 1152.883,363.565c-29.34-66.502-71.855-126.75-123.972-176.475
	c-52.088-49.763-113.75-88.983-180.305-114.738C 782.070,46.505, 710.743,34.287, 640,36c-70.755,1.623-140.745,17.17-204.775,45.592
	c-64.063,28.332-122.105,69.362-169.993,119.64c-47.922,50.248-85.66,109.705-110.403,173.822C 129.993,439.16, 118.295,507.822, 120,576
	c 1.627,68.19, 16.66,135.515, 44.067,197.113c 27.323,61.625, 66.873,117.463, 115.307,163.512c 48.412,46.085, 105.662,82.338, 167.343,106.070
	C 508.39,1066.52, 574.388,1077.702, 640,1076c 65.625-1.633, 130.285-16.148, 189.453-42.542c 59.19-26.313, 112.82-64.377, 157.030-110.977
	c 44.245-46.573, 79.013-101.617, 101.737-160.86C 1111.030,702.38, 1121.697,639.048, 1120,576l 0.297,0 c-0.18-2.2-0.297-4.42-0.297-6.665
	c0-41.265, 31.24-75.218, 71.358-79.53C 1183.577,446.277, 1170.695,403.783, 1152.883,363.565z"  />
<glyph unicode="&#x64;" d="M 800,553.143q0-8.571 -7.143-17.143l-227.857-227.857q-7.857-6.429 -16.429-6.429t-16.429,6.429l-228.571,228.571q-10.714,11.429 -5,25q 5.714,14.286 21.429,14.286l 137.143,0 l0,251.429 q0,10 6.429,16.429t 16.429,6.429l 137.143,0 q 10,0 16.429-6.429t 6.429-16.429l0-251.429 l 137.143,0 q 10,0 16.429-6.429t 6.429-16.429zM 548.571,964.571q-105.714,0 -195-52.143t-141.429-141.429t-52.143-195t 52.143-195t 141.429-141.429t 195-52.143t 195,52.143t 141.429,141.429t 52.143,195 t-52.143,195t-141.429,141.429t-195,52.143zM 1097.143,576q0-149.286 -73.571-275.357t-199.643-199.643t-275.357-73.571t-275.357,73.571t-199.643,199.643t-73.571,275.357t 73.571,275.357t 199.643,199.643t 275.357,73.571t 275.357-73.571t 199.643-199.643t 73.571-275.357z" horiz-adv-x="1097.143"  />
<glyph unicode="&#x32;" d="M 767.857,278.857q0-9.286 -7.143-16.429l-35.714-35.714q-7.143-7.143 -16.429-7.143t-16.429,7.143l-280.714,280.714l-280.714-280.714q-7.143-7.143 -16.429-7.143t-16.429,7.143l-35.714,35.714q-7.143,7.143 -7.143,16.429t 7.143,16.429l 332.857,332.857q 7.143,7.143 16.429,7.143t 16.429-7.143l 332.857-332.857q 7.143-7.143 7.143-16.429zM 767.857,553.143q0-9.286 -7.143-16.429l-35.714-35.714q-7.143-7.143 -16.429-7.143t-16.429,7.143l-280.714,280.714l-280.714-280.714 q-7.143-7.143 -16.429-7.143t-16.429,7.143l-35.714,35.714q-7.143,7.143 -7.143,16.429t 7.143,16.429l 332.857,332.857q 7.143,7.143 16.429,7.143t 16.429-7.143l 332.857-332.857q 7.143-7.143 7.143-16.429z" horiz-adv-x="822.857"  />
<glyph unicode="&#x38;" d="M 767.857,598.857q0-9.286 -7.143-16.429l-332.857-332.857q-7.143-7.143 -16.429-7.143t-16.429,7.143l-332.857,332.857q-7.143,7.143 -7.143,16.429t 7.143,16.429l 35.714,35.714q 7.143,7.143 16.429,7.143t 16.429-7.143l 280.714-280.714l 280.714,280.714q 7.143,7.143 16.429,7.143t 16.429-7.143l 35.714-35.714q 7.143-7.143 7.143-16.429zM 767.857,873.143q0-9.286 -7.143-16.429l-332.857-332.857q-7.143-7.143 -16.429-7.143t-16.429,7.143l-332.857,332.857q-7.143,7.143 -7.143,16.429 t 7.143,16.429l 35.714,35.714q 7.143,7.143 16.429,7.143t 16.429-7.143l 280.714-280.714l 280.714,280.714q 7.143,7.143 16.429,7.143t 16.429-7.143l 35.714-35.714q 7.143-7.143 7.143-16.429z" horiz-adv-x="822.857"  />
<glyph unicode="&#x34;" d="M 447.857,827.429q0-9.286 -7.143-16.429l-280.714-280.714l 280.714-280.714q 7.143-7.143 7.143-16.429t-7.143-16.429l-35.714-35.714q-7.143-7.143 -16.429-7.143t-16.429,7.143l-332.857,332.857q-7.143,7.143 -7.143,16.429t 7.143,16.429l 332.857,332.857q 7.143,7.143 16.429,7.143t 16.429-7.143l 35.714-35.714q 7.143-7.143 7.143-16.429z" horiz-adv-x="457.143"  />
<glyph unicode="&#x36;" d="M 425,530.286q0-9.286 -7.143-16.429l-332.857-332.857q-7.143-7.143 -16.429-7.143t-16.429,7.143l-35.714,35.714q-7.143,7.143 -7.143,16.429t 7.143,16.429l 280.714,280.714l-280.714,280.714q-7.143,7.143 -7.143,16.429t 7.143,16.429l 35.714,35.714q 7.143,7.143 16.429,7.143t 16.429-7.143l 332.857-332.857q 7.143-7.143 7.143-16.429z" horiz-adv-x="457.143"  />
<glyph unicode="&#x39;" d="M 767.857,370.286q0-9.286 -7.143-16.429l-35.714-35.714q-7.143-7.143 -16.429-7.143t-16.429,7.143l-280.714,280.714l-280.714-280.714q-7.143-7.143 -16.429-7.143t-16.429,7.143l-35.714,35.714q-7.143,7.143 -7.143,16.429t 7.143,16.429l 332.857,332.857q 7.143,7.143 16.429,7.143t 16.429-7.143l 332.857-332.857q 7.143-7.143 7.143-16.429z" horiz-adv-x="822.857"  />
<glyph unicode="&#x33;" d="M 767.857,690.286q0-9.286 -7.143-16.429l-332.857-332.857q-7.143-7.143 -16.429-7.143t-16.429,7.143l-332.857,332.857q-7.143,7.143 -7.143,16.429t 7.143,16.429l 35.714,35.714q 7.143,7.143 16.429,7.143t 16.429-7.143l 280.714-280.714l 280.714,280.714q 7.143,7.143 16.429,7.143t 16.429-7.143l 35.714-35.714q 7.143-7.143 7.143-16.429z" horiz-adv-x="822.857"  />
<glyph unicode="&#x2f;" d="M 1280,507.429l0,594.286 q0,9.286 -6.786,16.071t-16.071,6.786l-1142.857,0 q-9.286,0 -16.071-6.786t-6.786-16.071l0-594.286 q0-9.286 6.786-16.071t 16.071-6.786l 1142.857,0 q 9.286,0 16.071,6.786t 6.786,16.071zM 1371.429,1101.714l0-777.143 q0-47.143 -33.571-80.714t-80.714-33.571l-388.571,0 q0-26.429 11.429-55.357t 22.857-50.714t 11.429-31.071q0-18.571 -13.571-32.143t-32.143-13.571l-365.714,0 q-18.571,0 -32.143,13.571 t-13.571,32.143q0,10 11.429,31.429t 22.857,50t 11.429,55.714l-388.571,0 q-47.143,0 -80.714,33.571t-33.571,80.714l0,777.143 q0,47.143 33.571,80.714t 80.714,33.571l 1142.857,0 q 47.143,0 80.714-33.571t 33.571-80.714z" horiz-adv-x="1371.429"  />
<glyph unicode="&#x5b;" d="M 548.571,530.286l0-274.286 q0-57.143 -40-97.143t-97.143-40l-274.286,0 q-57.143,0 -97.143,40t-40,97.143l0,502.857 q0,74.286 28.929,141.786t 78.214,116.786t 116.786,78.214t 141.786,28.929l 45.714,0 q 18.571,0 32.143-13.571t 13.571-32.143l0-91.429 q0-18.571 -13.571-32.143t-32.143-13.571l-45.714,0 q-75.714,0 -129.286-53.571t-53.571-129.286l0-22.857 q0-28.571 20-48.571t 48.571-20l 160,0 q 57.143,0 97.143-40t 40-97.143z M 1188.571,530.286l0-274.286 q0-57.143 -40-97.143t-97.143-40l-274.286,0 q-57.143,0 -97.143,40t-40,97.143l0,502.857 q0,74.286 28.929,141.786t 78.214,116.786t 116.786,78.214t 141.786,28.929l 45.714,0 q 18.571,0 32.143-13.571t 13.571-32.143l0-91.429 q0-18.571 -13.571-32.143t-32.143-13.571l-45.714,0 q-75.714,0 -129.286-53.571t-53.571-129.286l0-22.857 q0-28.571 20-48.571t 48.571-20l 160,0 q 57.143,0 97.143-40t 40-97.143z" horiz-adv-x="1188.571"  />
<glyph unicode="&#x5d;" d="M 548.571,987.429l0-502.857 q0-74.286 -28.929-141.786t-78.214-116.786t-116.786-78.214t-141.786-28.929l-45.714,0 q-18.571,0 -32.143,13.571t-13.571,32.143l0,91.429 q0,18.571 13.571,32.143t 32.143,13.571l 45.714,0 q 75.714,0 129.286,53.571t 53.571,129.286l0,22.857 q0,28.571 -20,48.571t-48.571,20l-160,0 q-57.143,0 -97.143,40t-40,97.143l0,274.286 q0,57.143 40,97.143t 97.143,40l 274.286,0 q 57.143,0 97.143-40t 40-97.143zM 1188.571,987.429 l0-502.857 q0-74.286 -28.929-141.786t-78.214-116.786t-116.786-78.214t-141.786-28.929l-45.714,0 q-18.571,0 -32.143,13.571t-13.571,32.143l0,91.429 q0,18.571 13.571,32.143t 32.143,13.571l 45.714,0 q 75.714,0 129.286,53.571t 53.571,129.286l0,22.857 q0,28.571 -20,48.571t-48.571,20l-160,0 q-57.143,0 -97.143,40t-40,97.143l0,274.286 q0,57.143 40,97.143t 97.143,40l 274.286,0 q 57.143,0 97.143-40t 40-97.143z" horiz-adv-x="1188.571"  />
<glyph unicode="&#x28;" d="M 850.714,924.571l 126.429,0 l-51.429,155.714l-8.571,33.571q-1.429,11.429 -1.429,14.286l-2.857,0 l-2.143-14.286q0-0.714 -2.5-12.857t-5.357-20.714zM 525.714,187.429q0-8.571 -7.143-17.143l-227.857-227.857q-7.143-6.429 -16.429-6.429q-8.571,0 -16.429,6.429l-228.571,228.571q-10.714,11.429 -5,25q 5.714,14.286 21.429,14.286l 137.143,0 l0,982.857 q0,10 6.429,16.429t 16.429,6.429l 137.143,0 q 10,0 16.429-6.429t 6.429-16.429l0-982.857 l 137.143,0 q 10,0 16.429-6.429t 6.429-16.429zM 1122.857,102.429 l0-166.429 l-417.143,0 l0,64.286 l 263.571,377.857q 8.571,12.857 15,19.286l 7.857,6.429l0,2.143 q-1.429,0 -4.643-0.357t-5.357-0.357q-8.571-2.143 -21.429-2.143l-165.714,0 l0-82.143 l-85.714,0 l0,163.571 l 405,0 l0-63.571 l-263.571-378.571q-4.286-5.714 -15-18.571l-7.857-7.857l0-1.429 l 10,1.429q 6.429,1.429 21.429,1.429l 177.143,0 l0,85 l 86.429,0 zM 1186.429,743.143l0-75.714 l-205.714,0 l0,75.714 l 53.571,0 l-33.571,102.857l-173.571,0 l-33.571-102.857l 53.571,0 l0-75.714 l-205,0 l0,75.714 l 50,0 l 164.286,472.857l 115.714,0  l 164.286-472.857l 50,0 z" horiz-adv-x="1188.571"  />
<glyph unicode="&#x29;" d="M 850.714,193.143l 126.429,0 l-51.429,155.714l-8.571,33.571q-1.429,11.429 -1.429,14.286l-2.857,0 l-2.143-14.286q0-0.714 -2.5-12.857t-5.357-20.714zM 525.714,187.429q0-8.571 -7.143-17.143l-227.857-227.857q-7.143-6.429 -16.429-6.429q-8.571,0 -16.429,6.429l-228.571,228.571q-10.714,11.429 -5,25q 5.714,14.286 21.429,14.286l 137.143,0 l0,982.857 q0,10 6.429,16.429t 16.429,6.429l 137.143,0 q 10,0 16.429-6.429t 6.429-16.429l0-982.857 l 137.143,0 q 10,0 16.429-6.429t 6.429-16.429zM 1186.429,11.714 l0-75.714 l-205.714,0 l0,75.714 l 53.571,0 l-33.571,102.857l-173.571,0 l-33.571-102.857l 53.571,0 l0-75.714 l-205,0 l0,75.714 l 50,0 l 164.286,472.857l 115.714,0 l 164.286-472.857l 50,0 zM 1122.857,833.857l0-166.429 l-417.143,0 l0,64.286 l 263.571,377.857q 8.571,12.857 15,19.286l 7.857,6.429l0,2.143 q-1.429,0 -4.643-0.357t-5.357-0.357q-8.571-2.143 -21.429-2.143l-165.714,0 l0-82.143 l-85.714,0 l0,163.571 l 405,0 l0-63.571 l-263.571-378.571q-4.286-5.714 -15-18.571l-7.857-7.143l0-2.143 l 10,2.143q 6.429,0.714 21.429,0.714l 177.143,0  l0,85 l 86.429,0 z" horiz-adv-x="1188.571"  />
<glyph unicode="&#x79;" d="M 693.571,327.429l0-150.714 q0-47.857 -27.857-47.857q-16.429,0 -32.143,15.714l0,215 q 15.714,15.714 32.143,15.714q 27.857,0 27.857-47.857zM 935,326.714l0-32.857 l-64.286,0 l0,32.857 q0,48.571 32.143,48.571t 32.143-48.571zM 245,482.429l 76.429,0 l0,67.143 l-222.857,0 l0-67.143 l 75,0 l0-406.429 l 71.429,0 l0,406.429 zM 450.714,76l 63.571,0 l0,352.857 l-63.571,0 l0-270 q-21.429-30 -40.714-30q-12.857,0 -15,15q-0.714,2.143 -0.714,25l0,260 l-63.571,0 l0-279.286 q0-35 5.714-52.143 q 8.571-26.429 41.429-26.429q 34.286,0 72.857,43.571l0-38.571 zM 757.143,181.714l0,140.714 q0,52.143 -6.429,70.714q-12.143,40 -50.714,40q-35.714,0 -66.429-38.571l0,155 l-63.571,0 l0-473.571 l 63.571,0 l0,34.286 q 32.143-39.286 66.429-39.286q 38.571,0 50.714,39.286q 6.429,19.286 6.429,71.429zM 998.571,188.857l0,9.286 l-65,0 q0-36.429 -1.429-43.571q-5-25.714 -28.571-25.714q-32.857,0 -32.857,49.286l0,62.143 l 127.857,0 l0,73.571 q0,56.429 -19.286,82.857q-27.857,36.429 -75.714,36.429q-48.571,0 -76.429-36.429 q-20-26.429 -20-82.857l0-123.571 q0-56.429 20.714-82.857q 27.857-36.429 77.143-36.429q 51.429,0 77.143,37.857q 12.857,19.286 15,38.571q 1.429,6.429 1.429,41.429zM 564.286,841l0,150 q0,49.286 -30.714,49.286t-30.714-49.286l0-150 q0-50 30.714-50t 30.714,50zM 1077.857,304.571q0-167.143 -18.571-250q-10-42.143 -41.429-70.714t-72.857-32.857q-131.429-15 -396.429-15t-396.429,15q-41.429,4.286 -73.214,32.857t-41.071,70.714 q-18.571,80 -18.571,250q0,167.143 18.571,250q 10,42.143 41.429,70.714t 73.571,33.571q 130.714,14.286 395.714,14.286t 396.429-14.286q 41.429-5 73.214-33.571t 41.071-70.714q 18.571-80 18.571-250zM 365,1216l 72.857,0 l-86.429-285l0-193.571 l-71.429,0 l0,193.571 q-10,52.857 -43.571,151.429q-26.429,73.571 -46.429,133.571l 75.714,0 l 50.714-187.857zM 629.286,978.143l0-125 q0-57.857 -20-84.286q-26.429-36.429 -75.714-36.429q-47.857,0 -75,36.429 q-20,27.143 -20,84.286l0,125 q0,57.143 20,83.571q 27.143,36.429 75,36.429q 49.286,0 75.714-36.429q 20-26.429 20-83.571zM 868.571,1093.857l0-356.429 l-65,0 l0,39.286 q-37.857-44.286 -73.571-44.286q-32.857,0 -42.143,26.429q-5.714,17.143 -5.714,53.571l0,281.429 l 65,0 l0-262.143 q0-23.571 0.714-25q 2.143-15.714 15-15.714q 19.286,0 40.714,30.714l0,272.143 l 65,0 z" horiz-adv-x="1097.143"  />
<glyph unicode="&#x46;" d="M 1066.68,1216L 213.355,1216 C 96.015,1216,0,1119.983,0,1002.64l0-853.283 C0,31.935, 96.015-64, 213.355-64l 853.325,0.003
	c 117.345,0, 213.32,95.932, 213.32,213.36L 1280,1002.64 C 1280,1119.983, 1184.023,1216, 1066.68,1216z M 1088.24,576L 880,576 l0-560 l-240,0 L 640,576 l-115.657,0 l0,183.205 L 640,759.205 
	l0,118.983 C 640,1039.865, 709.74,1136, 899.837,1136l 219.055,0 l0-198.212 l-178.912,0 c-53.102,0.088-59.69-27.69-59.69-79.39L 880,759.205l 240,0 
	L 1088.24,576z"  />
<glyph unicode="&#x74;" d="M 1066.678,1216L 213.358,1216 C 96.015,1216,0,1119.987,0,1002.637l0-853.277 C0,31.937, 96.015-64, 213.358-64l 853.32,0 
	C 1184.023-64, 1280,31.937, 1280,149.363L 1280,1002.637 C 1280,1119.987, 1184.023,1216, 1066.678,1216z M 1047.565,788.707
	c 0.41-9.178, 0.613-18.41, 0.613-27.685c0-282.767-211.52-608.835-598.322-608.835c-118.755,0-229.292,35.435-322.358,96.148
	c 16.45-1.985, 33.19-2.993, 50.163-2.993c 98.528,0, 189.197,34.212, 261.168,91.602c-92.020,1.725-169.68,63.595-196.442,148.603
	c 12.842-2.5, 26.015-3.842, 39.565-3.842c 19.18,0, 37.758,2.62, 55.4,7.51c-96.2,19.665-168.688,106.145-168.688,209.82
	c0,0.902,0,1.797, 0.020,2.69c 28.35-16.025, 60.78-25.65, 95.25-26.762c-56.428,38.373-93.552,103.865-93.552,178.11
	c0,39.212, 10.367,75.972, 28.472,107.573c 103.718-129.462, 258.67-214.65, 433.442-223.577c-3.588,15.665-5.447,31.995-5.447,48.768
	c0,118.172, 94.157,213.975, 210.287,213.975c 60.487,0, 115.147-25.983, 153.502-67.573c 47.9,9.595, 92.905,27.4, 133.54,51.928
	c-15.702-49.97-49.043-91.903-92.457-118.387c 42.533,5.172, 83.065,16.675, 120.775,33.693C 1124.313,856.565, 1088.658,818.875, 1047.565,788.707
	z"  />
<glyph unicode="&#x76;" d="M 1066.637,1216L 213.363,1216 C 96.015,1216,0,1119.98,0,1002.635l0-853.275 C0,31.937, 96.015-64, 213.363-64l 853.275,0 
	C 1183.985-64, 1280,31.937, 1280,149.363L 1280,1002.635 C 1280,1119.98, 1183.985,1216, 1066.637,1216z M 1016.085,668.342
	c-42.447-239.12-279.635-441.62-350.975-487.887c-71.36-46.258-136.442,18.527-160.048,67.493
	c-27.020,55.885-108.012,358.675-129.21,383.775c-21.205,25.047-84.845-25.1-84.845-25.1l-30.865,40.47
	c0,0, 129.228,154.31, 227.55,173.597c 104.255,20.457, 104.1-160.083, 129.175-260.303c 24.25-96.955, 40.55-152.44, 61.72-152.44
	c 21.212,0, 61.727,54.078, 106.065,136.962c 44.42,82.97-1.923,156.263-88.715,104.115C 730.67,857.34, 1058.515,907.425, 1016.085,668.342z"  />
<glyph unicode="&#x61;" d="M 1065,1216L 215,1216 C 96.75,1216,0,1119.25,0,1001l0-850 c0-118.25, 96.75-215, 215-215l 850,0 c 118.25,0, 215,96.75, 215,215L 1280,1001 C 1280,1119.25, 1183.25,1216, 1065,1216z M 1200,256L 720,256 
		L 720,551 c0,0, 87.918-1.25, 135-50l0-85 l 193.012,0 c-14.775,47.352-46.335,93.89-91.41,133.33C 879.128,617.118, 752.61,651, 640,651l0-395 L 80,256 l0,120 
		c0,54.245, 18.313,108.172, 52.955,155.95c 30.742,42.398, 73.58,79.79, 127.325,111.142c 63.040,36.773, 138.202,63.385, 219.72,78.472L 480,896 l 160,0 
		l0-160 c 183.75,0, 277.015-32.995, 379.723-92.907c 53.745-31.352, 96.583-68.745, 127.325-111.142C 1181.69,484.173, 1200,430.245, 1200,376L 1200,256 zM 249.488,416 C 264.262,463.352 295.825,509.89 340.898,549.33 C 380.322,583.825 427.923,610.815 480,629.025 L 480,416 L 249.488,416 Z"  />
<glyph unicode="&#x47;" d="M 329.34,266.79c0-33.815, 28.617-50.727, 85.835-50.727c 50.080,0, 75.11,17.552, 75.11,52.668
		c0,33.172-27.308,49.745-81.93,49.745C 355.673,318.48, 329.34,301.255, 329.34,266.79zM 1066.685,1216L 213.36,1216 C 96.015,1216,0,1119.987,0,1002.64l0-853.283 C0,31.937, 96.015-64, 213.36-64l 853.325,0 
		C 1184.020-64, 1280,31.937, 1280,149.36L 1280,1002.64 C 1280,1119.987, 1184.023,1216, 1066.685,1216z M 594.66,704.765
		c-9.105-3.255-22.11-6.822-39.015-10.732c 5.2-14.957, 7.808-28.94, 7.808-41.943c0-41.615-12.523-77.873-37.555-108.765
		c-25.038-30.885-57.39-49.258-97.058-55.108c-26.005-3.907-39.010-17.89-39.010-41.947c0-8.452, 4.223-16.912, 12.68-25.362
		c 11.055-12.357, 27.31-20.165, 48.773-23.418c 92.987-14.303, 139.482-52.992, 139.482-116.067c0-100.802-60.155-151.203-180.452-151.203
		c-49.428,0-90.070,8.782-121.93,26.337c-40.323,22.11-60.47,56.9-60.47,104.375c0,54.63, 30.24,92.020, 90.705,112.172l0,1.95 
		c-22.105,13.655-33.157,34.462-33.157,62.43c0,36.415, 10.405,59.18, 31.21,68.278l0,1.953 c-20.808,7.155-39.343,23.415-55.6,48.78
		c-18.205,27.315-27.313,56.575-27.313,87.788c0,46.822, 16.587,85.838, 49.74,117.050c 31.87,29.268, 69.91,43.895, 114.132,43.895
		c 31.867,0, 61.448-7.798, 88.763-23.403c 31.212,0, 67.302,7.8, 108.282,23.403L 594.66,704.765L 594.66,704.765z M 752.722,367.257
		l-110.233,0 c 1.302,13.002, 1.948,35.105, 1.948,66.33L 644.438,736.952 c0,30.568-0.653,51.705-1.948,63.398l 110.233,0 
		c-1.302-12.355-1.953-32.837-1.953-61.455l0-299.455 C 750.77,406.272, 751.423,382.21, 752.722,367.257z M 745.398,897.897
		c-13.33-14.305-29.102-21.453-47.307-21.453c-18.858,0-34.947,7.147-48.282,21.453c-13.332,14.315-20.002,31.215-20.002,50.723
		c0,20.168, 6.67,37.39, 20.002,51.707c 13.332,14.303, 29.425,21.46, 48.282,21.46c 18.205,0, 33.98-7.157, 47.307-21.46
		c 13.332-14.32, 19.997-31.538, 19.997-51.707C 765.395,929.113, 758.73,912.21, 745.398,897.897z M 1052.113,379.94
		c-24.068-13.012-53.008-19.508-86.822-19.508c-47.462,0-80.31,16.9-98.513,50.718c-13.662,25.362-20.482,65.35-20.482,119.975l0,174.605 
		l 0.973,0 l0,1.953 l-14.633,0.978c-8.455,0-19.515-0.978-33.167-2.928L 799.467,800.35 l 47.793,0 l0,38.040 c0,18.212-0.973,32.85-2.925,43.9l 113.148,0 
		c-1.938-12.35-2.92-26.332-2.92-41.94l0-39.998 l 84.857,0 l0-94.615 c-3.247,0-9.262,0.323-18.045,0.973
		c-8.78,0.653-17.070,0.983-24.872,0.983l-41.943,0 l0-181.43 c0-43.58, 14.313-65.362, 42.918-65.362c 20.158,0, 38.37,5.522, 54.635,16.58
		L 1052.113,379.94 L 1052.113,379.94zM 401.52,715.493c-40.97,0-61.455-24.068-61.455-72.183c0-44.877, 20.485-67.31, 61.455-67.31
		c 39.67,0, 59.502,22.76, 59.502,68.282c0,18.863-4.55,35.117-13.652,48.777C 436.313,708.013, 421.028,715.493, 401.52,715.493z"  />
<glyph unicode="&#x42;" d="M 1066.685,1216L 213.313,1216 C 95.505,1216,0,1120.477,0,1002.648l0-853.295 C0,31.52, 95.505-64, 213.313-64l 853.37,0 
	c 117.813,0, 213.31,95.52, 213.31,213.352L 1280,1002.648C 1280,1120.477, 1184.495,1216, 1066.685,1216z M 1120,405.878
	C 1120,234.64, 980.643,96, 808.195,96L 472.173,96 C 299.853,96, 160,234.64, 160,405.878L 160,746 c 0.12,171.25, 139.85,310, 312.173,310l 157.335,0 
	C 801.947,1056, 940.005,927.25, 940,756c 2.252-32.117, 31.152-60, 64.115-60l 1.12,0 l 52.695,0 C 1092.398,696, 1120,659.832, 1120,625.61L 1120,405.878 zM 880,416c0-44-36-80-80-80L 480,336 c-44,0-80,36-80,80l0,0c0,44, 36,80, 80,80l 320,0 C 844,496, 880,460, 880,416
	L 880,416zM 720,736c0-44-36-80-80-80l-160,0 c-44,0-80,36-80,80l0,0c0,44, 36,80, 80,80l 160,0 C 684,816, 720,780, 720,736L 720,736
	z"  />
<glyph unicode="&#x54;" d="M 1066.725,1216L 213.36,1216 C 96.013,1216, 0.003,1119.983, 0.003,1002.642l0-853.283 C 0.003,31.937, 96.013-64, 213.36-64L 1066.725-64 
	C 1184.063-64, 1280,31.937, 1280,149.36L 1280,1002.645 C 1279.99,1119.983, 1184.053,1216, 1066.725,1216z M 914.645,185.14
	c-37.69-17.735-71.91-30.235-102.5-37.422c-30.62-7.113-63.7-10.697-99.252-10.697c-40.39,0-64.22,5.072-95.235,15.235
	c-31.010,10.235-57.5,24.84-79.375,43.59c-21.947,18.91-37.108,38.998-45.583,60.243c-8.48,21.255-12.695,52.115-12.695,92.505L 480.005,658.345 
	l-119.995,0 l0,125.083 c 34.68,11.25, 74.92,27.418, 99.605,48.438c 24.8,21.090, 44.648,46.322, 59.605,75.855
	c 15.005,29.457, 25.313,67.032, 30.94,112.583l 125.625,0 L 675.785,816 L 880,816 l0-157.657 l-204.222,0 l0-226.485 c0-51.25-0.66-80.782, 4.77-95.313
	c 5.39-14.45, 18.907-29.45, 33.627-38.125c 19.57-11.72, 41.88-17.575, 67.032-17.575c 44.733,0, 89.222,14.532, 133.438,43.595L 914.645,185.14 
	L 914.645,185.14z"  />
<glyph unicode="&#x24;" d="M 1100.793,1052.532c 32.123-15.72, 60.117-38.108, 80.627-65.602c 43.17-57.875, 55.295-136.715, 36.045-234.333
	c-19.45-98.782-63.020-182.168-126.457-242.555c-11.602-12.127-24.028-23.432-37.255-33.85c-67.945-53.502-153.748-81.785-248.135-81.785
	l-15.14,0 L 505.543,394.408 L 424.837,16l-165.53,0 l 12.607,57.875l 57.66,0 l 80.705,378.408l 235.338,0 c 225.313,0, 413.673,138.847, 464.072,374.92
	C 1166.842,1094.495, 975.192,1216, 810.428,1216L 248.83,1216 L0,73.875l 190.040,0 L 160-64l 329.575,0 l 80.705,378.408l 235.338,0 
	c 225.313,0, 413.673,138.847, 464.072,374.92C 1311.835,886.428, 1218.685,1004.243, 1100.793,1052.532z M 800.327,827.202
	c-17.155-73.825-80.535-135.050-150.82-151.71l 38.422,170.027l 116.233,0 C 803.252,839.512, 802.010,833.407, 800.327,827.202z M 527.93,983.398
	l 161.415,0 c 45.95,0, 83.135-22.505, 102.338-57.875l-167.692,0 l-57.52-254.537l-109.14,0 L 527.93,983.398z"  />
<glyph unicode="&#x26;" d="M 640,1216C 286.56,1216,0,929.44,0,576c0-353.48, 286.56-640, 640-640c 353.48,0, 640,286.52, 640,640C 1280,929.44, 993.48,1216, 640,1216z M 640,256
	l-320,320l 240,0 L 560,896 l 160,0 l0-320 l 240,0 L 640,256z"  />
<glyph unicode="&#x20;" horiz-adv-x="640" />
</font>
</defs>
</svg>
